<?xml version="1.0" encoding="UTF-8"?>
<svg id="Layer_1" data-name="Layer 1" xmlns="http://www.w3.org/2000/svg" viewBox="0 0 132.08 65.97">
  <path d="M75.3,60.19l-4.59.68.07-1.12c-1.4.29-2.99.73-4.41.84-2.82-1.02-4.73,1.06-4.75-1.06l-10.34.76c-.22-.61-.6-.98-1-.95-2.58.23-4.67.14-7.47.22,3.61,1.95,10.82,2.77,9.57,6.4-5.66-.87-11.1-1.26-16.78-1.3-2.52-.02-5.09-.99-5.75-3.5l-1.08-4.07-4.94-.98-1.41-2.12c-.62-.93-1.2-1.6-2.22-2.16l-2.8-1.55c-.5-2.58-2.59-2.37-2.78-4.33-2.01-1.67-3.6-3.52-4.73-6.03l-4.78.11c-3.16.07-5.49-1.69-5.06-3.63.13-.59.91-1.45,1.64-1.68l6.43-1.99c.67-1.02,1.68-2.19,2.09-3.3.52-1.41.99-2.35,1.88-3.5l4.93-6.34c.97-1.25,1.53-2.9,2.8-3.92l5.72-4.62c1.64-1.32,3.39-2.34,5.14-3.5s3.46-2.21,5.72-2.46c5.08-.56,7.11-2.91,10.72-3.66,2.25-.47,4.45-1.3,6.79-1.32L74.7,0c1.8,0,3.38.66,4.97,1.26,1.73.65,3.61.54,5.43.85,3.44.57,6.73,1.42,10.2,1.64,2.22-.71,5.49.01,7.77,1l5.73,2.49,1.6,1.01c1.49-1.17,3.1-1.54,4.88-1.02,4.06,1.18,3.44,6.03,5.44,8.68,1.63,2.15,3.53,3.95,4.52,6.52l2.8,7.28c1.91,4.97,3.06,10.1,3.88,15.35.48,3.06-.08,6.5-1.94,5.83-1.14-.41-1.74-.14-2.57.62-1.62,1.47-4,2.72-6.19,2.01-1.23-.4-2.17-.94-3.55-.48-1.25.42-2.73.44-3.98-.07l-4.74-1.98c-1.39-.58-2.27-.91-3.6.1l-3.67,2.77-2.67,1.13-5.12,3.76-1.97,1.4,7.17,2.94.39,2.37c-2.09-.55-3.94-.82-6.05-.65-3.02.24-5.9.25-8.9-.2-.78-.12-1.28-1.02-1.34-1.78-.11-1.62-1.18-.88-1.68-2.26-.11.09-1.06.44-1.17.15l-.53-1.32c-.13-.33-1-.57-1.32-.42-.92.43-2.14,1.06-3.18,1.22Z"/>
</svg>